<svg width="60" height="60" viewBox="0 0 60 60" fill="none" xmlns="http://www.w3.org/2000/svg">
<rect width="60" height="60" rx="5" fill="#00FF0A"/>
<path d="M35.1762 18.0035H35.1296L35.1032 18.0297L35.1762 18.0035Z" fill="#0B0C0B"/>
<path fill-rule="evenodd" clip-rule="evenodd" d="M35.0906 18.0422L34.6705 18.4592C39.3819 19.826 41.6614 21.9603 41.6614 21.9603C38.6251 20.4387 35.8888 19.6779 33.1523 19.3703C31.175 19.0628 29.1978 19.2246 27.5273 19.3703H27.0728C26.0047 19.3703 23.7319 19.826 20.6865 21.0447C19.625 21.507 19.016 21.81 19.016 21.81C19.016 21.81 21.2932 19.5276 26.3115 18.3086L26.0047 18.0011C26.0047 18.0011 22.2046 17.8554 18.1024 20.8944C18.1024 20.8944 14 28.0565 14 36.886C14 36.886 16.2728 40.8497 22.5069 41C22.5069 41 23.416 39.7859 24.3365 38.7175C20.8364 37.6513 19.4728 35.5192 19.4728 35.5192C19.4728 35.5192 19.7773 35.6695 20.2341 35.9746H20.3705C20.4387 35.9746 20.4705 36.0088 20.5068 36.0429V36.0568C20.5432 36.0931 20.575 36.1252 20.6432 36.1252C21.3932 36.4348 22.1432 36.7402 22.7568 37.0363C24.0692 37.5993 25.4419 38.009 26.8477 38.2573C28.9614 38.5648 31.3841 38.7127 34.1432 38.2573L34.2295 38.2381C35.5644 37.937 36.8992 37.6361 38.2341 37.0384C38.4775 36.9135 38.7363 36.7883 39.0085 36.6567C39.7276 36.3091 40.5403 35.9164 41.4091 35.3595C41.4091 35.3595 40.0455 37.492 36.3977 38.5579C36.7484 39.0542 37.166 39.5843 37.5114 40.0083C37.9049 40.4912 38.2045 40.8361 38.2045 40.8361C43.3149 40.724 45.8643 38.0424 46.6935 37.1703C46.8762 36.9781 46.9754 36.8737 47 36.9041C47 28.0882 42.875 20.9125 42.875 20.9125C39.202 18.1789 35.762 18.0449 35.0906 18.0422ZM38.466 31.0976C38.466 29.4233 37.1773 28.0565 35.5795 28.0565V28.0631C33.9955 28.0631 32.6978 29.4254 32.6933 31.1112C32.6933 32.7832 33.9887 34.15 35.5795 34.15C37.1705 34.15 38.466 32.7832 38.466 31.0976ZM28.1319 31.0976C28.1319 29.4233 26.8455 28.0565 25.2547 28.0565L25.2455 28.0631C23.6547 28.0631 22.3592 29.4254 22.3592 31.1112C22.3592 32.7832 23.6547 34.15 25.2455 34.15C26.8364 34.15 28.1319 32.7832 28.1319 31.0976Z" fill="#0B0C0B"/>
</svg>
