<svg width="48" height="48" viewBox="0 0 48 48" fill="none" xmlns="http://www.w3.org/2000/svg">
<rect width="48" height="48" rx="5" fill="black" fill-opacity="0.3"/>
<rect x="0.5" y="0.5" width="47" height="47" rx="4.5" stroke="white" stroke-opacity="0.2"/>
<path d="M28.1409 14.4032H28.1036L28.0825 14.4241L28.1409 14.4032Z" fill="white"/>
<path fill-rule="evenodd" clip-rule="evenodd" d="M28.0724 14.4342L27.7364 14.7678C31.5055 15.8612 33.3291 17.5686 33.3291 17.5686C30.9 16.3513 28.711 15.7427 26.5218 15.4966C24.94 15.2506 23.3582 15.38 22.0218 15.4966H21.6582C20.8037 15.4966 18.9855 15.8612 16.5491 16.8361C15.7 17.206 15.2128 17.4484 15.2128 17.4484C15.2128 17.4484 17.0345 15.6224 21.0491 14.6473L20.8037 14.4013C20.8037 14.4013 17.7636 14.2847 14.4818 16.7159C14.4818 16.7159 11.2 22.4456 11.2 29.5092C11.2 29.5092 13.0182 32.6802 18.0055 32.8004C18.0055 32.8004 18.7328 31.8291 19.4691 30.9744C16.6691 30.1215 15.5782 28.4157 15.5782 28.4157C15.5782 28.4157 15.8218 28.536 16.1872 28.7801H16.2963C16.3509 28.7801 16.3763 28.8074 16.4054 28.8347V28.8458C16.4345 28.8749 16.46 28.9005 16.5145 28.9005C17.1145 29.1482 17.7145 29.3926 18.2054 29.6294C19.2553 30.0798 20.3535 30.4076 21.4781 30.6062C23.1691 30.8523 25.1072 30.9706 27.3145 30.6062L27.3835 30.5909C28.4514 30.35 29.5193 30.1093 30.5872 29.6311C30.782 29.5312 30.989 29.431 31.2067 29.3257C31.782 29.0477 32.4322 28.7335 33.1272 28.288C33.1272 28.288 32.0363 29.994 29.1181 30.8467C29.3986 31.2437 29.7327 31.6679 30.0091 32.007C30.3239 32.3933 30.5636 32.6693 30.5636 32.6693C34.6518 32.5796 36.6914 30.4343 37.3547 29.7366C37.5009 29.5828 37.5802 29.4993 37.6 29.5237C37.6 22.471 34.3 16.7304 34.3 16.7304C31.3615 14.5435 28.6095 14.4363 28.0724 14.4342ZM30.7727 24.8785C30.7727 23.539 29.7418 22.4456 28.4636 22.4456V22.4509C27.1964 22.4509 26.1582 23.5407 26.1546 24.8894C26.1546 26.2269 27.1909 27.3204 28.4636 27.3204C29.7364 27.3204 30.7727 26.2269 30.7727 24.8785ZM22.5055 24.8785C22.5055 23.539 21.4763 22.4456 20.2037 22.4456L20.1963 22.4509C18.9237 22.4509 17.8873 23.5407 17.8873 24.8894C17.8873 26.2269 18.9237 27.3204 20.1963 27.3204C21.4691 27.3204 22.5055 26.2269 22.5055 24.8785Z" fill="white"/>
</svg>
