<svg width="30" height="29" viewBox="0 0 30 29" fill="none" xmlns="http://www.w3.org/2000/svg">
<g clip-path="url(#clip0_137_718)">
<path d="M19.2767 15.2349H10.4566L10.4977 7.83535C10.342 7.83996 10.1862 7.83223 10.0318 7.81223C9.14721 7.72832 8.32317 7.32604 7.71289 6.68017C7.05831 5.9699 6.6991 5.03682 6.70843 4.07096C6.70843 1.94043 8.46475 0 10.3906 0H19.0772C20.1606 0.00212841 21.2 0.428851 21.9724 1.18859C22.3531 1.56576 22.6551 2.01476 22.8609 2.50955C23.0667 3.00435 23.1722 3.53508 23.1712 4.07096C23.1756 4.59106 23.0681 5.10603 22.8559 5.5809C22.6437 6.05577 22.3319 6.47946 21.9416 6.82319C21.2291 7.45859 20.3548 7.80111 19.2775 7.86533L19.2767 15.2349ZM11.884 13.8159H17.8655V7.87133C15.8103 7.84993 14.6551 7.64354 13.2704 7.06981L12.9065 6.91909L13.5102 5.58324L13.8527 5.73651C15.0267 6.25801 16.2504 6.4173 19.0763 6.4173C19.8538 6.4173 20.5192 6.19122 21.0013 5.7622C21.2391 5.54884 21.429 5.28749 21.5585 4.99538C21.6879 4.70327 21.754 4.38704 21.7523 4.06753C21.7517 3.71934 21.682 3.37474 21.5472 3.0537C21.4124 2.73266 21.2152 2.44159 20.9671 2.19734C20.7196 1.9478 20.425 1.74989 20.1004 1.6151C19.7759 1.4803 19.4278 1.41129 19.0763 1.41208H10.3966C9.86912 1.41208 9.2971 1.6998 8.86722 2.18277C8.39994 2.69995 8.13721 3.36972 8.12821 4.06668C8.12039 4.37768 8.17876 4.6868 8.29948 4.97353L8.30633 4.99237C8.40963 5.25741 8.56415 5.49951 8.76104 5.70483C8.94417 5.90823 9.16676 6.07225 9.41526 6.18693C9.64122 6.31199 9.89289 6.3835 10.1508 6.39589C10.1885 6.39589 10.2605 6.39588 10.3538 6.40187C10.5251 6.40786 10.7528 6.41644 10.9866 6.41644H11.9209L11.884 13.8159Z" fill="#00FF0A"/>
<path d="M3.3584 19.9365H6.55334V20.5753H5.27571V23.1315H4.63689V20.5753H3.3584V19.9365Z" fill="#00FF0A"/>
<path d="M7.69924 20.576C7.69849 20.4906 7.7154 20.4061 7.74891 20.3276C7.81408 20.1732 7.93698 20.0503 8.09144 19.9851C8.17017 19.9514 8.25498 19.9342 8.34063 19.9346H10.2571C10.3427 19.9342 10.4275 19.9514 10.5063 19.9851C10.6607 20.0503 10.7836 20.1732 10.8488 20.3276C10.8823 20.4061 10.8992 20.4906 10.8985 20.576V21.261C10.899 21.2656 10.899 21.2702 10.8985 21.2747C10.8973 21.2792 10.8973 21.2839 10.8985 21.2884V21.3201C10.8989 21.3212 10.8992 21.3224 10.8992 21.3235C10.8992 21.3247 10.8989 21.3259 10.8985 21.327C10.8976 21.3292 10.8976 21.3316 10.8985 21.3338V21.3569C10.8966 21.3587 10.8952 21.3608 10.8944 21.3632C10.8935 21.3656 10.8931 21.3681 10.8933 21.3706V21.3801C10.8933 21.3801 10.8933 21.38 10.8933 21.3843V21.4023C10.892 21.4035 10.8909 21.4049 10.8902 21.4066C10.8895 21.4082 10.8891 21.41 10.889 21.4117V21.4212C10.889 21.4212 10.889 21.4254 10.8839 21.4254V21.4349C10.8839 21.4409 10.8839 21.4434 10.8796 21.4434V21.4528C10.8785 21.4573 10.8785 21.462 10.8796 21.4665C10.8791 21.4715 10.8773 21.4762 10.8745 21.4802V21.4897L10.8702 21.4982C10.8713 21.5013 10.8713 21.5046 10.8702 21.5077V21.5171L10.8608 21.535V21.5393L10.8514 21.5582C10.8497 21.566 10.8468 21.5735 10.8428 21.5804V21.5899C10.8403 21.5948 10.8371 21.5994 10.8334 21.6035C10.8344 21.6066 10.8344 21.6099 10.8334 21.613L10.8282 21.6215C10.829 21.6238 10.829 21.6262 10.8282 21.6284C10.8274 21.6306 10.8274 21.633 10.8282 21.6352C10.823 21.6425 10.8185 21.6503 10.8145 21.6584C10.8117 21.6645 10.8086 21.6705 10.8051 21.6763C10.8048 21.6835 10.8018 21.6903 10.7966 21.6952C10.7966 21.6952 10.7914 21.7003 10.7914 21.702C10.7908 21.7047 10.7893 21.7071 10.7871 21.7089C10.7862 21.7117 10.7862 21.7147 10.7871 21.7174L10.7777 21.7269C10.7761 21.7335 10.7728 21.7397 10.7683 21.7449C10.7644 21.7516 10.7598 21.7579 10.7546 21.7637L10.7503 21.768C10.7456 21.7723 10.7418 21.7776 10.7392 21.7834C10.7368 21.7896 10.733 21.7952 10.7281 21.7997L10.7229 21.8039V21.8091H10.7186C10.7186 21.8091 10.7186 21.8168 10.7092 21.8228L10.6998 21.8322C10.6989 21.835 10.6989 21.838 10.6998 21.8408V21.8459C10.6998 21.8459 10.6998 21.8459 10.7049 21.8459V21.8502V21.8553L10.7144 21.8639L10.7229 21.8733L10.7281 21.8827L10.7366 21.8913L10.7418 21.9007L10.7503 21.9101L10.7546 21.9187V21.9238L10.764 21.9324C10.7647 21.9339 10.765 21.9355 10.765 21.9371C10.765 21.9387 10.7647 21.9403 10.764 21.9418H10.7692C10.7761 21.9478 10.781 21.9559 10.7829 21.9649L10.7914 21.9743C10.7914 21.9803 10.7914 21.9829 10.7966 21.9829L10.8008 21.9923C10.8026 21.9967 10.8026 22.0016 10.8008 22.006L10.8103 22.0154C10.8094 22.0182 10.8094 22.0212 10.8103 22.024C10.8127 22.0277 10.8144 22.0317 10.8154 22.036C10.8151 22.0397 10.8151 22.0434 10.8154 22.0471C10.816 22.0486 10.8164 22.0502 10.8164 22.0518C10.8164 22.0535 10.816 22.0551 10.8154 22.0565C10.8168 22.0575 10.818 22.0588 10.8189 22.0603C10.8198 22.0617 10.8204 22.0634 10.8205 22.0651C10.8277 22.0801 10.8337 22.0955 10.8385 22.1114C10.8385 22.1114 10.8385 22.1114 10.8385 22.1199L10.8437 22.1293V22.1388L10.8531 22.1567V22.1662C10.8542 22.1692 10.8542 22.1725 10.8531 22.1756C10.8534 22.1789 10.855 22.1819 10.8574 22.1841V22.1936C10.8602 22.1976 10.8619 22.2023 10.8625 22.2073C10.8614 22.2118 10.8614 22.2165 10.8625 22.221V22.2295C10.8625 22.2295 10.8668 22.2295 10.8668 22.239V22.2484L10.8719 22.2526V22.2621L10.8762 22.2706V22.2895V22.2938V22.3032C10.876 22.3057 10.8764 22.3082 10.8773 22.3106C10.8782 22.3129 10.8796 22.3151 10.8813 22.3169V22.34C10.8805 22.3422 10.8805 22.3446 10.8813 22.3469C10.8818 22.3479 10.8821 22.3491 10.8821 22.3503C10.8821 22.3514 10.8818 22.3526 10.8813 22.3537V22.3854C10.8803 22.3899 10.8803 22.3946 10.8813 22.3991C10.8819 22.4036 10.8819 22.4082 10.8813 22.4128V23.1021H10.2571V22.4633C10.257 22.4432 10.2556 22.4232 10.2528 22.4034C10.2493 22.3848 10.2448 22.3665 10.2391 22.3485C10.2087 22.2736 10.1517 22.2126 10.079 22.1773C10.0345 22.1573 9.98645 22.1462 9.93767 22.1448H8.33806V23.1038H7.69924V20.576ZM8.33806 20.7772V21.5342H9.9351C9.97708 21.5343 10.0187 21.5261 10.0575 21.5101C10.0963 21.4941 10.1315 21.4706 10.1612 21.4409C10.1909 21.4112 10.2144 21.3759 10.2304 21.3371C10.2464 21.2983 10.2546 21.2568 10.2545 21.2148V20.7772C10.2548 20.7508 10.2497 20.7245 10.2395 20.7001C10.2293 20.6757 10.2144 20.6535 10.1954 20.635C10.1772 20.6161 10.1552 20.601 10.1309 20.5909C10.1066 20.5807 10.0805 20.5756 10.0541 20.576H8.53844C8.5121 20.5756 8.48597 20.5807 8.46167 20.5909C8.43737 20.601 8.41541 20.6161 8.39715 20.635C8.37822 20.6535 8.36323 20.6757 8.35307 20.7001C8.34292 20.7245 8.33781 20.7508 8.33806 20.7772Z" fill="#00FF0A"/>
<path d="M12.2677 22.4933V20.576C12.2669 20.4906 12.2838 20.4061 12.3173 20.3276C12.3825 20.1732 12.5054 20.0503 12.6599 19.9851C12.7386 19.9514 12.8234 19.9342 12.909 19.9346H15.4643V20.5734H13.1094C13.0831 20.5731 13.057 20.5781 13.0327 20.5883C13.0084 20.5985 12.9864 20.6135 12.9681 20.6325C12.9492 20.651 12.9342 20.6731 12.9241 20.6975C12.9139 20.7219 12.9088 20.7482 12.909 20.7746V21.2122H14.8255V21.851H12.9065V22.2938C12.9069 22.3468 12.9281 22.3976 12.9656 22.4352C13.0031 22.4729 13.0538 22.4943 13.1069 22.495H15.4617V23.1338H12.9065C12.8208 23.1342 12.736 23.117 12.6573 23.0833C12.5028 23.0181 12.3799 22.8952 12.3148 22.7407C12.2823 22.6623 12.2663 22.5781 12.2677 22.4933Z" fill="#00FF0A"/>
<path d="M16.6624 22.4927V20.5753C16.6616 20.49 16.6785 20.4055 16.7121 20.327C16.7446 20.2514 16.7911 20.1825 16.8491 20.1241C16.9076 20.0657 16.9768 20.0192 17.0529 19.9871C17.1313 19.9533 17.2158 19.9361 17.3012 19.9365H19.8573V20.5753H17.5024C17.4491 20.5756 17.3981 20.5968 17.3604 20.6345C17.3227 20.6722 17.3014 20.7233 17.3012 20.7766V21.2142H19.2177V21.853H17.3012V22.2931C17.3009 22.3195 17.3059 22.3456 17.3161 22.3699C17.3263 22.3942 17.3413 22.4162 17.3603 22.4344C17.3787 22.4535 17.4008 22.4687 17.4252 22.479C17.4496 22.4893 17.4759 22.4946 17.5024 22.4944H19.8573V23.1332H17.3012C17.2158 23.1337 17.1313 23.1164 17.0529 23.0827C16.9768 23.0505 16.9076 23.004 16.8491 22.9457C16.7911 22.8872 16.7446 22.8183 16.7121 22.7427C16.6784 22.6637 16.6615 22.5785 16.6624 22.4927Z" fill="#00FF0A"/>
<path d="M20.9748 23.1319V22.4931H23.2116C23.2935 22.4888 23.3707 22.4533 23.4272 22.3938C23.4838 22.3343 23.5153 22.2553 23.5153 22.1732C23.5153 22.0912 23.4838 22.0122 23.4272 21.9527C23.3707 21.8932 23.2935 21.8577 23.2116 21.8534H21.9339C21.8057 21.8548 21.6786 21.8297 21.5606 21.7798C21.4471 21.7312 21.3439 21.6614 21.2566 21.5743C21.1677 21.4857 21.0965 21.3811 21.0468 21.266C20.997 21.1482 20.9714 21.0217 20.9714 20.8939C20.9714 20.7661 20.997 20.6396 21.0468 20.5218C21.1443 20.29 21.3287 20.1056 21.5606 20.008C21.6786 19.957 21.8061 19.9313 21.9348 19.9327H24.1706V20.5715H21.9339C21.8707 20.5714 21.8088 20.5901 21.7562 20.6252C21.7036 20.6603 21.6626 20.7102 21.6384 20.7686C21.6142 20.827 21.6079 20.8913 21.6202 20.9533C21.6326 21.0154 21.6631 21.0723 21.7078 21.117C21.7371 21.1472 21.7723 21.171 21.8112 21.1871C21.8501 21.2031 21.8919 21.2111 21.9339 21.2103H23.2116C23.3401 21.2096 23.4675 21.2353 23.5858 21.2857C23.6989 21.3345 23.8017 21.4042 23.8889 21.4912C23.9766 21.5788 24.0464 21.6826 24.0944 21.7969C24.1441 21.9146 24.1698 22.0411 24.1698 22.169C24.1698 22.2968 24.1441 22.4233 24.0944 22.541C24.0464 22.6553 23.9766 22.7591 23.8889 22.8467C23.8017 22.9337 23.6989 23.0035 23.5858 23.0523C23.4675 23.1027 23.3401 23.1283 23.2116 23.1276L20.9748 23.1319Z" fill="#00FF0A"/>
<path d="M0 25.4141H2.30009H2.34119L2.35061 25.4183H2.37887C2.37887 25.4183 2.38572 25.4226 2.39257 25.4226H2.40113C2.40221 25.4222 2.40338 25.4219 2.40456 25.4219C2.40573 25.4219 2.4069 25.4222 2.40798 25.4226C2.41019 25.4235 2.41263 25.4235 2.41483 25.4226H2.42426H2.4311C2.43218 25.4231 2.43335 25.4233 2.43453 25.4233C2.43571 25.4233 2.43687 25.4231 2.43795 25.4226H2.44737C2.44737 25.4226 2.45423 25.4269 2.46108 25.4269C2.46793 25.4269 2.46964 25.4269 2.46964 25.432H2.48334C2.48334 25.432 2.48848 25.432 2.48848 25.4363H2.49704C2.49889 25.4365 2.50069 25.437 2.50231 25.4379C2.50394 25.4388 2.50535 25.44 2.50646 25.4415H2.51074C2.51223 25.4408 2.51383 25.4405 2.51545 25.4405C2.51707 25.4405 2.51867 25.4408 2.52016 25.4415L2.539 25.4483C2.54526 25.4499 2.5513 25.4521 2.55698 25.4552H2.56126C2.57562 25.4595 2.58941 25.4656 2.60237 25.4731H2.61178C2.62507 25.4781 2.63796 25.4842 2.65032 25.4911C2.66135 25.4981 2.67279 25.5044 2.68458 25.51C2.68713 25.5125 2.69045 25.514 2.69399 25.5143C2.70179 25.5164 2.70928 25.5196 2.71626 25.5237C2.71741 25.525 2.71885 25.5262 2.72048 25.5269C2.72211 25.5276 2.72389 25.528 2.72568 25.528L2.7351 25.5374C2.7351 25.5374 2.74195 25.5374 2.7488 25.5468C2.75533 25.5484 2.76146 25.5513 2.76678 25.5554L2.78476 25.5691C2.78587 25.5705 2.78729 25.5718 2.78891 25.5727C2.79054 25.5735 2.79233 25.5741 2.79418 25.5742L2.80789 25.5879L2.8173 25.5965C2.81837 25.598 2.81977 25.5993 2.82141 25.6001C2.82304 25.601 2.82486 25.6015 2.82672 25.6016L2.83529 25.6102L2.84899 25.6239L2.85841 25.6333C2.85968 25.6332 2.86096 25.6333 2.86216 25.6337C2.86337 25.6342 2.86446 25.6349 2.86537 25.6358C2.86627 25.6367 2.86696 25.6377 2.86739 25.639C2.86781 25.6402 2.86796 25.6414 2.86783 25.6427L2.87639 25.647L2.92692 25.6975C2.92692 25.6975 2.92692 25.6975 2.92692 25.7018C2.92819 25.7017 2.92947 25.7018 2.93067 25.7022C2.93188 25.7027 2.93297 25.7033 2.93387 25.7042C2.93478 25.7051 2.93546 25.7063 2.93589 25.7075C2.93632 25.7087 2.93647 25.7099 2.93633 25.7112V25.7163L2.94147 25.7206L2.95003 25.73L2.95946 25.7386V25.748L2.96888 25.7574V25.766L2.97829 25.7754L2.98257 25.784V25.7891L2.99199 25.7986L2.99628 25.8028C2.99781 25.8039 2.99907 25.8053 2.99996 25.8069C3.00085 25.8086 3.00135 25.8104 3.00142 25.8123C3.00331 25.8139 3.00477 25.8159 3.0057 25.8182C3.00508 25.8205 3.00508 25.8229 3.0057 25.8251V25.8302C3.0057 25.8302 3.0057 25.8302 3.0057 25.8345L3.01426 25.8439C3.01426 25.8499 3.01426 25.8525 3.0194 25.8525V25.8619C3.02101 25.8638 3.02223 25.866 3.02296 25.8683C3.0237 25.8707 3.02395 25.8732 3.02368 25.8756L3.0331 25.885C3.03218 25.8878 3.03218 25.8908 3.0331 25.8936C3.03539 25.8973 3.03712 25.9014 3.03824 25.9056C3.03877 25.9096 3.04024 25.9134 3.04252 25.9167C3.04315 25.9182 3.04348 25.9198 3.04348 25.9214C3.04348 25.9231 3.04315 25.9247 3.04252 25.9261C3.04394 25.9271 3.04513 25.9284 3.04602 25.9299C3.04691 25.9313 3.04746 25.933 3.04766 25.9347C3.05466 25.9497 3.06067 25.9652 3.06564 25.981C3.06564 25.981 3.06992 25.9809 3.06992 25.9895L3.07506 25.9989L3.07934 26.0083V26.0126C3.07997 26.0141 3.08031 26.0157 3.08031 26.0174C3.08031 26.019 3.07997 26.0206 3.07934 26.0221C3.07953 26.0238 3.08009 26.0254 3.08097 26.0269C3.08186 26.0284 3.08306 26.0296 3.08448 26.0306V26.04C3.08546 26.0431 3.08546 26.0464 3.08448 26.0495C3.08356 26.0522 3.08356 26.0552 3.08448 26.058V26.0674C3.0873 26.0715 3.08906 26.0762 3.08961 26.0811C3.08852 26.0856 3.08852 26.0903 3.08961 26.0948V26.1043C3.08961 26.1043 3.09389 26.1043 3.09389 26.1128V26.1222H3.09903V26.1317V26.1411V26.1591C3.09903 26.1591 3.09903 26.1591 3.09903 26.1642V26.1728C3.09882 26.1753 3.09918 26.1778 3.10007 26.1802C3.10096 26.1826 3.10236 26.1847 3.10417 26.1865V26.2096C3.10331 26.2118 3.10331 26.2142 3.10417 26.2164C3.10464 26.2175 3.10489 26.2187 3.10489 26.2199C3.10489 26.2211 3.10464 26.2222 3.10417 26.2233V26.255C3.10301 26.2595 3.10301 26.2642 3.10417 26.2687C3.10475 26.2732 3.10475 26.2778 3.10417 26.2824V26.3826C3.10489 26.3871 3.10489 26.3917 3.10417 26.3963C3.10311 26.4008 3.10311 26.4055 3.10417 26.41V26.4425C3.10503 26.4447 3.10503 26.4472 3.10417 26.4494C3.10417 26.4494 3.10417 26.4494 3.10417 26.4562V26.4785C3.1024 26.4803 3.10103 26.4824 3.10015 26.4848C3.09926 26.4871 3.09888 26.4897 3.09903 26.4922V26.5016V26.5059C3.09903 26.5059 3.09903 26.5059 3.09903 26.511V26.529C3.0984 26.5305 3.09807 26.5321 3.09807 26.5337C3.09807 26.5353 3.0984 26.5369 3.09903 26.5384V26.547C3.0992 26.5477 3.09918 26.5484 3.09898 26.5491C3.09878 26.5498 3.09841 26.5505 3.09789 26.551C3.09738 26.5515 3.09674 26.5519 3.09604 26.5521C3.09534 26.5523 3.0946 26.5523 3.09389 26.5521V26.5607C3.09389 26.5667 3.0939 26.5701 3.08961 26.5701V26.5787C3.08848 26.5835 3.08848 26.5884 3.08961 26.5932C3.08877 26.5981 3.08703 26.6027 3.08448 26.6069V26.6155V26.6249C3.08539 26.6277 3.08539 26.6307 3.08448 26.6335V26.6429L3.07506 26.6609V26.666L3.06564 26.684C3.06417 26.6921 3.06127 26.7 3.05707 26.7071V26.7157C3.05469 26.7207 3.05151 26.7253 3.04766 26.7294C3.04877 26.7324 3.04877 26.7358 3.04766 26.7388L3.04252 26.7482C3.043 26.7505 3.043 26.7528 3.04252 26.7551C3.04205 26.7562 3.0418 26.7573 3.0418 26.7585C3.0418 26.7597 3.04205 26.7608 3.04252 26.7619C3.03672 26.7685 3.03208 26.776 3.02882 26.7842L3.0194 26.803C3.01929 26.8064 3.01847 26.8098 3.017 26.8129C3.01552 26.816 3.01343 26.8188 3.01083 26.821C3.01083 26.821 3.0057 26.8261 3.0057 26.8279C3.00617 26.8289 3.00641 26.8301 3.00641 26.8313C3.00641 26.8325 3.00617 26.8336 3.0057 26.8347C3.00506 26.8362 3.00473 26.8378 3.00473 26.8394C3.00473 26.841 3.00506 26.8426 3.0057 26.8441L2.99628 26.8527C2.99447 26.8596 2.99126 26.866 2.98685 26.8715C2.98273 26.8778 2.97816 26.8839 2.97316 26.8895H2.96888C2.96411 26.8941 2.96033 26.8997 2.95774 26.9058C2.9551 26.9121 2.95099 26.9177 2.94575 26.9221V26.9263H2.94147C2.94147 26.9263 2.94147 26.9263 2.93633 26.9263C2.9312 26.9263 2.93633 26.9332 2.92777 26.94L2.91835 26.9486C2.91737 26.9517 2.91737 26.955 2.91835 26.958C2.82905 27.0561 2.72103 27.1353 2.60066 27.1909C2.47561 27.2486 2.33932 27.2779 2.20161 27.2766H0.638819V28.5542H0V25.4141ZM0.638819 26.6917H2.23586C2.2779 26.6922 2.31961 26.6842 2.35846 26.6682C2.39732 26.6521 2.43252 26.6284 2.46193 26.5984C2.50668 26.5537 2.53718 26.4967 2.54954 26.4347C2.5619 26.3727 2.55557 26.3084 2.53136 26.25C2.50715 26.1916 2.46615 26.1417 2.41354 26.1066C2.36094 26.0715 2.2991 26.0528 2.23586 26.0529H0.638819V26.6917Z" fill="#00FF0A"/>
<path d="M4.30812 26.0525C4.30747 25.967 4.32437 25.8821 4.35779 25.8034C4.42295 25.6489 4.54586 25.526 4.70032 25.4608C4.77911 25.4274 4.86392 25.4105 4.94951 25.4112H6.86596C6.95155 25.4105 7.03635 25.4274 7.11515 25.4608C7.2696 25.526 7.39251 25.6489 7.45768 25.8034C7.49109 25.8821 7.508 25.967 7.50734 26.0525V26.7376C7.5085 26.7421 7.5085 26.7468 7.50734 26.7513C7.50629 26.7558 7.50629 26.7605 7.50734 26.765V26.7976C7.5082 26.7998 7.5082 26.8022 7.50734 26.8044C7.50672 26.8066 7.50672 26.809 7.50734 26.8112V26.8335C7.50558 26.8353 7.50421 26.8374 7.50332 26.8398C7.50244 26.8422 7.50206 26.8447 7.50221 26.8472V26.8566V26.8609C7.50221 26.8609 7.50221 26.8609 7.50221 26.866V26.884C7.50157 26.8855 7.50124 26.8871 7.50124 26.8887C7.50124 26.8904 7.50157 26.892 7.50221 26.8935V26.902C7.50237 26.9027 7.50235 26.9035 7.50215 26.9042C7.50195 26.9049 7.50158 26.9055 7.50106 26.906C7.50055 26.9065 7.49991 26.9069 7.49921 26.9071C7.49851 26.9073 7.49778 26.9073 7.49707 26.9071V26.9157C7.49707 26.9217 7.49707 26.9251 7.49707 26.9251V26.9346C7.49445 26.9387 7.49297 26.9434 7.49278 26.9483C7.49208 26.9532 7.49033 26.9578 7.48765 26.962V26.9705L7.48337 26.9799C7.4842 26.983 7.4842 26.9863 7.48337 26.9894V26.9979L7.47395 27.0168V27.021L7.46453 27.039C7.46306 27.0472 7.46016 27.055 7.45596 27.0621V27.0707C7.45364 27.0761 7.45046 27.081 7.44654 27.0853C7.44619 27.0885 7.44467 27.0916 7.44226 27.0938L7.43713 27.1032C7.43799 27.1054 7.43799 27.1079 7.43713 27.1101C7.43665 27.1112 7.43641 27.1124 7.43641 27.1135C7.43641 27.1147 7.43665 27.1159 7.43713 27.117C7.43164 27.1238 7.42704 27.1313 7.42342 27.1392C7.4208 27.1458 7.41765 27.152 7.414 27.1581C7.41389 27.1615 7.41308 27.1649 7.4116 27.168C7.41013 27.171 7.40803 27.1738 7.40544 27.176C7.40544 27.176 7.40544 27.1812 7.40544 27.1829C7.40544 27.1846 7.40544 27.1872 7.4003 27.1897C7.39932 27.1928 7.39932 27.1961 7.4003 27.1992L7.39089 27.2077C7.38955 27.2146 7.38661 27.2211 7.38232 27.2266C7.37793 27.2329 7.37306 27.2389 7.36776 27.2446C7.36319 27.2493 7.35943 27.2548 7.35663 27.2608C7.35404 27.2669 7.35026 27.2725 7.3455 27.2771L7.34036 27.2814C7.34036 27.2814 7.34036 27.2814 7.33608 27.2814C7.33434 27.2868 7.33107 27.2915 7.32666 27.2951L7.31724 27.3036C7.31626 27.3067 7.31626 27.31 7.31724 27.3131C7.31724 27.3131 7.31724 27.3131 7.32238 27.3131V27.3173V27.3216L7.3318 27.331L7.34036 27.3404L7.3455 27.349L7.35406 27.3584L7.3592 27.3679L7.36776 27.3764V27.3858L7.37718 27.3953C7.3786 27.3962 7.3798 27.3975 7.38068 27.399C7.38157 27.4005 7.38213 27.4021 7.38232 27.4038H7.3455V27.409C7.35492 27.4184 7.3592 27.4252 7.3592 27.4321L7.36862 27.4407C7.36862 27.4466 7.36862 27.4501 7.36862 27.4501L7.3729 27.4586C7.37471 27.463 7.37471 27.4679 7.3729 27.4723L7.38232 27.4818C7.38134 27.4848 7.38134 27.4881 7.38232 27.4912C7.38469 27.4945 7.38643 27.4983 7.38746 27.5023C7.38704 27.506 7.38704 27.5097 7.38746 27.5134C7.39014 27.5199 7.39328 27.5262 7.39688 27.5323C7.4039 27.547 7.40991 27.5621 7.41486 27.5777C7.41486 27.5777 7.41486 27.5777 7.41486 27.5871L7.42 27.5956V27.6051V27.6093L7.42942 27.6282V27.6367C7.4304 27.6398 7.4304 27.6431 7.42942 27.6462C7.42972 27.6497 7.43123 27.653 7.4337 27.6556V27.6641C7.43638 27.6683 7.43813 27.673 7.43884 27.6778C7.43902 27.6827 7.4405 27.6874 7.44312 27.6915V27.701C7.44312 27.701 7.44312 27.701 7.44312 27.7104V27.719L7.44826 27.7241V27.7327V27.7421V27.7601V27.7652V27.7746C7.44811 27.7771 7.44849 27.7797 7.44937 27.782C7.45026 27.7844 7.45163 27.7865 7.4534 27.7883V27.8106C7.45278 27.8128 7.45278 27.8152 7.4534 27.8174C7.45426 27.8196 7.45426 27.8221 7.4534 27.8243V27.8568C7.45223 27.861 7.45223 27.8655 7.4534 27.8697C7.4544 27.8742 7.4544 27.8789 7.4534 27.8834V28.5684H6.81458V27.9296C6.81598 27.9099 6.81598 27.8902 6.81458 27.8705C6.81122 27.852 6.80665 27.8337 6.80088 27.8157C6.77036 27.7409 6.71335 27.6799 6.64075 27.6444C6.5962 27.6247 6.54818 27.6139 6.49945 27.6128H4.94779V28.571H4.30898L4.30812 26.0525ZM4.94694 26.2529V27.0108H6.54398C6.58602 27.0113 6.62772 27.0033 6.66658 26.9873C6.70544 26.9712 6.74064 26.9475 6.77005 26.9174C6.80025 26.8881 6.82411 26.853 6.84017 26.8141C6.85622 26.7752 6.86413 26.7334 6.86339 26.6914V26.2529C6.86294 26.1999 6.84168 26.1492 6.8042 26.1117C6.76672 26.0742 6.71602 26.053 6.66301 26.0525H5.14732C5.09431 26.053 5.0436 26.0742 5.00612 26.1117C4.96864 26.1492 4.94738 26.1999 4.94694 26.2529Z" fill="#00FF0A"/>
<path d="M8.87656 27.969V26.0525C8.8759 25.967 8.89281 25.8821 8.92623 25.8034C8.99139 25.6489 9.1143 25.526 9.26875 25.4608C9.34755 25.4274 9.43236 25.4105 9.51794 25.4112H11.4344C11.52 25.4105 11.6048 25.4274 11.6836 25.4608C11.838 25.526 11.9609 25.6489 12.0261 25.8034C12.0595 25.8821 12.0764 25.967 12.0758 26.0525V27.969C12.0764 28.0546 12.0595 28.1394 12.0261 28.2182C11.9609 28.3726 11.838 28.4955 11.6836 28.5607C11.6048 28.5941 11.52 28.611 11.4344 28.6104H9.51538C9.42979 28.611 9.34498 28.5941 9.26618 28.5607C9.11173 28.4955 8.98882 28.3726 8.92365 28.2182C8.89112 28.1392 8.87509 28.0544 8.87656 27.969ZM9.51538 27.7686C9.51582 27.8216 9.53707 27.8723 9.57456 27.9098C9.61204 27.9473 9.66275 27.9685 9.71575 27.969H11.2314C11.2845 27.9685 11.3352 27.9473 11.3726 27.9098C11.4101 27.8723 11.4314 27.8216 11.4318 27.7686V26.2529C11.4314 26.1999 11.4101 26.1492 11.3726 26.1117C11.3352 26.0742 11.2845 26.053 11.2314 26.0525H9.71575C9.66275 26.053 9.61204 26.0742 9.57456 26.1117C9.53707 26.1492 9.51582 26.1999 9.51538 26.2529V27.7686Z" fill="#00FF0A"/>
<path d="M13.2122 25.4141H16.4062V26.0529H15.1286V28.6082H14.4898V26.0529H13.2122V25.4141Z" fill="#00FF0A"/>
<path d="M17.552 26.0525C17.5512 25.9669 17.5684 25.882 17.6026 25.8034C17.6677 25.6489 17.7906 25.526 17.9451 25.4608C18.0235 25.4273 18.1081 25.4104 18.1934 25.4112H20.1047C20.19 25.4105 20.2746 25.4274 20.3531 25.4608C20.5075 25.526 20.6304 25.6489 20.6956 25.8034C20.7293 25.8821 20.7465 25.9669 20.7461 26.0525V26.7376C20.7474 26.7421 20.7474 26.7468 20.7461 26.7513C20.7451 26.7558 20.7451 26.7605 20.7461 26.765V26.7976C20.7466 26.7998 20.7466 26.8021 20.7461 26.8044C20.7456 26.8055 20.7454 26.8066 20.7454 26.8078C20.7454 26.809 20.7456 26.8102 20.7461 26.8113V26.8335C20.7443 26.8379 20.7443 26.8428 20.7461 26.8472V26.8566V26.8609C20.7461 26.8609 20.7461 26.8609 20.7461 26.866V26.884C20.7451 26.8871 20.7451 26.8904 20.7461 26.8935V26.902C20.7461 26.902 20.7461 26.9072 20.7418 26.9072V26.9157C20.7418 26.9217 20.7418 26.9252 20.7367 26.9252V26.9346C20.7359 26.9391 20.7359 26.9437 20.7367 26.9483C20.736 26.953 20.7345 26.9577 20.7324 26.962V26.9705L20.7273 26.9799C20.7273 26.9817 20.7269 26.9835 20.7261 26.9851C20.7254 26.9867 20.7243 26.9882 20.723 26.9894V26.9979L20.7136 27.0168V27.021L20.705 27.039C20.703 27.0472 20.6998 27.0549 20.6956 27.0622V27.0707C20.6933 27.0761 20.6901 27.081 20.6862 27.0853C20.6862 27.0869 20.6858 27.0886 20.6851 27.0901C20.6843 27.0916 20.6832 27.0929 20.6819 27.0938V27.1033C20.6827 27.1055 20.6827 27.1079 20.6819 27.1101C20.6814 27.1112 20.6812 27.1124 20.6812 27.1135C20.6812 27.1147 20.6814 27.1159 20.6819 27.117C20.6768 27.1239 20.6725 27.1314 20.669 27.1392L20.6596 27.1581C20.659 27.1651 20.6556 27.1715 20.6502 27.176C20.6502 27.176 20.6459 27.1812 20.6459 27.1829C20.6459 27.1846 20.6459 27.1872 20.6408 27.1897C20.6383 27.1923 20.6368 27.1956 20.6365 27.1992L20.6271 27.2077C20.6257 27.2146 20.6228 27.2211 20.6185 27.2266L20.6048 27.2446C20.5998 27.2491 20.5957 27.2546 20.5928 27.2608C20.5902 27.2669 20.5865 27.2725 20.5817 27.2771L20.5766 27.2814C20.5748 27.2868 20.5715 27.2915 20.5671 27.2951L20.5586 27.3036C20.5571 27.3047 20.5559 27.3062 20.555 27.3078C20.5541 27.3094 20.5536 27.3112 20.5534 27.3131H20.5586V27.3173L20.5629 27.3216L20.5723 27.331L20.5808 27.3405L20.586 27.349L20.5954 27.3584V27.3679L20.6048 27.3764V27.3858L20.6142 27.3953C20.6167 27.3975 20.6182 27.4005 20.6185 27.4038V27.409C20.6279 27.4184 20.6322 27.4252 20.6322 27.4321L20.6416 27.4407C20.6416 27.4467 20.6416 27.4501 20.6459 27.4501V27.4586C20.6477 27.4604 20.6491 27.4626 20.6499 27.4649C20.6508 27.4673 20.6512 27.4698 20.6511 27.4723L20.6605 27.4818C20.6604 27.4836 20.6608 27.4853 20.6616 27.4869C20.6623 27.4886 20.6634 27.49 20.6648 27.4912C20.6652 27.4949 20.6652 27.4986 20.6648 27.5023C20.6657 27.5062 20.6672 27.5099 20.669 27.5134C20.6719 27.5158 20.6737 27.5192 20.6742 27.5229C20.6752 27.5259 20.6752 27.5292 20.6742 27.5323C20.6812 27.547 20.6872 27.5621 20.6922 27.5777C20.6922 27.5777 20.6973 27.5777 20.6973 27.5871V27.5956V27.6051V27.6094L20.7067 27.6282V27.6367C20.7081 27.6379 20.7092 27.6393 20.7099 27.641C20.7107 27.6426 20.711 27.6444 20.711 27.6462C20.7111 27.648 20.7117 27.6498 20.7125 27.6514C20.7134 27.6531 20.7147 27.6545 20.7161 27.6556V27.6641C20.7183 27.6685 20.7197 27.6731 20.7204 27.6778C20.7196 27.6824 20.7196 27.687 20.7204 27.6916V27.701C20.7204 27.701 20.7256 27.701 20.7256 27.7104V27.719L20.7298 27.7241V27.7327V27.7421V27.7601V27.7652V27.7746C20.728 27.779 20.728 27.7839 20.7298 27.7883V27.8106C20.7294 27.8117 20.7291 27.8128 20.7291 27.814C20.7291 27.8152 20.7294 27.8164 20.7298 27.8174C20.7303 27.8197 20.7303 27.822 20.7298 27.8243V27.8568C20.7287 27.861 20.7287 27.8655 20.7298 27.8697C20.7309 27.8742 20.7309 27.8789 20.7298 27.8834V28.5684H20.1047V27.9296C20.1049 27.9098 20.1032 27.89 20.0996 27.8705C20.0966 27.8519 20.0921 27.8335 20.0859 27.8157C20.0554 27.7411 19.9988 27.6802 19.9266 27.6445C19.8817 27.6247 19.8335 27.614 19.7845 27.6128H18.1908V28.571H17.552V26.0525ZM18.1908 26.2529V27.0108H19.7879C19.8727 27.0108 19.954 26.9771 20.014 26.9173C20.0741 26.8574 20.1079 26.7762 20.1082 26.6914V26.2529C20.1075 26.1998 20.086 26.1491 20.0484 26.1117C20.0108 26.0742 19.96 26.053 19.9069 26.0525H18.3921C18.3656 26.0523 18.3394 26.0574 18.315 26.0676C18.2905 26.0777 18.2684 26.0927 18.2499 26.1116C18.231 26.1299 18.2159 26.1519 18.2057 26.1762C18.1956 26.2005 18.1905 26.2266 18.1908 26.2529Z" fill="#00FF0A"/>
<path d="M22.1206 27.9694V26.0529C22.12 25.9673 22.1369 25.8825 22.1703 25.8037C22.2033 25.7283 22.2497 25.6596 22.3073 25.6008C22.366 25.5427 22.4352 25.4962 22.5111 25.4638C22.5896 25.4302 22.6741 25.4133 22.7594 25.4141H24.6759C24.7615 25.4133 24.8463 25.4302 24.9251 25.4638C25.0009 25.496 25.0698 25.5425 25.128 25.6008C25.1859 25.6593 25.2324 25.7281 25.265 25.8037C25.2988 25.8825 25.3159 25.9673 25.3156 26.0529V27.9694C25.3159 28.055 25.2988 28.1398 25.265 28.2185C25.2324 28.2941 25.1859 28.3629 25.128 28.4215C25.0698 28.4797 25.0009 28.5263 24.9251 28.5585C24.8463 28.592 24.7615 28.6089 24.6759 28.6082H22.7594C22.6741 28.6089 22.5896 28.592 22.5111 28.5585C22.4352 28.5261 22.366 28.4796 22.3073 28.4215C22.2497 28.3627 22.2033 28.2939 22.1703 28.2185C22.1369 28.1397 22.12 28.0549 22.1206 27.9694ZM22.7594 27.769C22.7599 27.8221 22.7813 27.873 22.8189 27.9105C22.8566 27.948 22.9075 27.9691 22.9607 27.9694H24.4721C24.5251 27.9689 24.5758 27.9477 24.6133 27.9102C24.6508 27.8727 24.672 27.822 24.6725 27.769V26.2533C24.672 26.2003 24.6508 26.1496 24.6133 26.1121C24.5758 26.0746 24.5251 26.0533 24.4721 26.0529H22.9607C22.9075 26.0531 22.8566 26.0743 22.8189 26.1118C22.7813 26.1493 22.7599 26.2001 22.7594 26.2533V27.769Z" fill="#00FF0A"/>
<path d="M27.3278 25.4141V27.769C27.3282 27.822 27.3495 27.8727 27.387 27.9102C27.4245 27.9476 27.4752 27.9689 27.5282 27.9693H29.8839V28.6082H27.3278C27.2425 28.6089 27.1579 28.592 27.0795 28.5585C27.0035 28.526 26.9344 28.4796 26.8757 28.4215C26.8181 28.3627 26.7716 28.2939 26.7386 28.2185C26.7052 28.1397 26.6883 28.0549 26.689 27.9693V25.4141H27.3278Z" fill="#00FF0A"/>
</g>
<defs>
<clipPath id="clip0_137_718">
<rect width="29.884" height="28.608" fill="white"/>
</clipPath>
</defs>
</svg>
