<svg width="77" height="19" viewBox="0 0 77 19" fill="none" xmlns="http://www.w3.org/2000/svg">
<g clip-path="url(#clip0_137_569)">
<path d="M24.2883 3.53516H29.8784V4.65201H27.6428V9.12519H26.5259V4.65201H24.2883V3.53516Z" fill="#01FF0B"/>
<path d="M31.8843 4.65207C31.8832 4.5026 31.9129 4.35451 31.9717 4.21708C32.085 3.94915 32.2983 3.73592 32.5662 3.62258C32.7036 3.56379 32.8517 3.53405 33.0012 3.53521H36.3556C36.5051 3.53372 36.6533 3.56347 36.7906 3.62258C37.0595 3.73517 37.2736 3.94856 37.387 4.21708C37.4458 4.35451 37.4756 4.5026 37.4744 4.65207V5.85824C37.4758 5.86641 37.4758 5.87473 37.4744 5.88291C37.4721 5.89098 37.4721 5.8995 37.4744 5.90758V5.96267C37.4759 5.96632 37.4759 5.97042 37.4744 5.97408C37.4734 5.97615 37.4729 5.97845 37.4729 5.98075C37.4729 5.98306 37.4734 5.98527 37.4744 5.98734V6.02722C37.4728 6.03082 37.472 6.03471 37.472 6.03863C37.472 6.04255 37.4728 6.04644 37.4744 6.05004V6.0671V6.09947C37.4727 6.10439 37.4727 6.10967 37.4744 6.11459V6.13175V6.14696C37.4744 6.15835 37.4744 6.16402 37.4744 6.16402V6.17923C37.4729 6.1874 37.4729 6.19574 37.4744 6.2039C37.4763 6.21138 37.4763 6.21924 37.4744 6.22672V6.24378V6.25899C37.4759 6.2646 37.4759 6.27045 37.4744 6.27606V6.29127L37.4573 6.32355L37.4421 6.35582C37.4389 6.36974 37.4338 6.38315 37.4269 6.3957V6.41091C37.4226 6.42003 37.4168 6.42835 37.4098 6.43558C37.4109 6.43798 37.4114 6.44057 37.4114 6.44319C37.4114 6.4458 37.4109 6.4484 37.4098 6.45079V6.46795C37.4113 6.47161 37.4113 6.47571 37.4098 6.47936C37.409 6.48114 37.4085 6.48305 37.4085 6.48502C37.4085 6.48699 37.409 6.48889 37.4098 6.49068C37.401 6.50325 37.3934 6.5166 37.387 6.53056L37.3699 6.56293C37.3699 6.5691 37.3686 6.57515 37.366 6.58073C37.3633 6.58632 37.3595 6.59127 37.3547 6.5952C37.3547 6.5952 37.3547 6.60471 37.3547 6.60661C37.3547 6.60851 37.3547 6.60658 37.3547 6.61987C37.3537 6.62227 37.3531 6.62486 37.3531 6.62748C37.3531 6.63009 37.3537 6.63269 37.3547 6.63508L37.3395 6.65029C37.3367 6.66199 37.3316 6.67297 37.3243 6.68257C37.3171 6.69408 37.3089 6.70487 37.2997 6.71484C37.2911 6.72309 37.2841 6.7327 37.2788 6.74332C37.2743 6.75393 37.2678 6.76358 37.2598 6.77179C37.2598 6.77179 37.2598 6.78516 37.2446 6.79655L37.2275 6.81176C37.226 6.81737 37.226 6.82322 37.2275 6.82883C37.2275 6.82883 37.2275 6.82883 37.237 6.82883L37.2522 6.84404L37.2693 6.85925V6.87632L37.2845 6.89153V6.90859L37.3016 6.9238V6.93901V6.94847L37.3167 6.96368C37.3181 6.96866 37.3181 6.97392 37.3167 6.97889V6.98835C37.3291 6.99829 37.3373 7.01253 37.3395 7.02824L37.3566 7.04345C37.3566 7.05484 37.3566 7.05866 37.3566 7.05866V7.07572C37.3599 7.08363 37.3599 7.09249 37.3566 7.10039L37.3737 7.1156C37.3726 7.11796 37.3719 7.12057 37.3719 7.12321C37.3719 7.12584 37.3726 7.12845 37.3737 7.13081C37.3751 7.13771 37.3751 7.14478 37.3737 7.15168V7.17069C37.379 7.17498 37.3824 7.18115 37.3832 7.18785C37.3832 7.18785 37.3832 7.19727 37.3832 7.20297C37.396 7.22871 37.4068 7.25546 37.4155 7.28283C37.4155 7.28283 37.4155 7.2828 37.4155 7.29989V7.3151V7.33031V7.33977L37.4326 7.37019V7.38726C37.4326 7.38726 37.4326 7.39677 37.4326 7.40247C37.4304 7.40795 37.4304 7.41405 37.4326 7.41953V7.43474C37.4344 7.44288 37.4344 7.45128 37.4326 7.45941C37.431 7.46692 37.431 7.47472 37.4326 7.48223V7.4993C37.4326 7.4993 37.4326 7.49931 37.4326 7.51451V7.53157V7.54678V7.56394V7.59427V7.60948C37.4294 7.61738 37.4294 7.62624 37.4326 7.63415V7.67403C37.4326 7.67403 37.4326 7.68354 37.4326 7.68544C37.4334 7.68919 37.4334 7.69309 37.4326 7.69685V7.75389C37.4326 7.76338 37.4326 7.77281 37.4326 7.77661C37.434 7.78478 37.434 7.7932 37.4326 7.80137V9.00745H36.3138V7.88874C36.3168 7.85461 36.3168 7.82029 36.3138 7.78616C36.3081 7.75347 36.3004 7.72108 36.2911 7.68924C36.238 7.55677 36.1379 7.44853 36.0099 7.38531C35.9318 7.35149 35.8481 7.33288 35.763 7.33031H33.005V9.00745H31.8881L31.8843 4.65207ZM33.005 5.00914V6.33876H35.801C35.9491 6.33876 36.0911 6.27988 36.1959 6.17515C36.3006 6.07042 36.3594 5.92844 36.3594 5.78033V5.02055C36.3589 4.92751 36.3217 4.83843 36.2559 4.77264C36.1902 4.70684 36.1011 4.66963 36.008 4.66913H33.3488C33.2593 4.67237 33.1743 4.7091 33.1106 4.77208C33.0469 4.83506 33.0092 4.91968 33.005 5.00914Z" fill="#01FF0B"/>
<path d="M39.8789 8.00641V4.65204C39.8778 4.50258 39.9075 4.35448 39.9663 4.21706C40.0797 3.94912 40.2929 3.73589 40.5609 3.62256C40.6983 3.56377 40.8464 3.53403 40.9958 3.53519H45.469V4.65204H41.3472C41.3011 4.65181 41.2555 4.66089 41.213 4.67885C41.1706 4.69681 41.1322 4.72324 41.1003 4.75648C41.0669 4.78827 41.0404 4.82659 41.0224 4.86907C41.0044 4.91155 40.9954 4.95734 40.9958 5.00346V5.76324H44.3503V6.88195H40.9958V7.64173C40.9963 7.73478 41.0335 7.82385 41.0993 7.88965C41.1651 7.95544 41.2542 7.99265 41.3472 7.99315H45.469V9.11196H40.9958C40.8464 9.11311 40.6983 9.08337 40.5609 9.02459C40.4284 8.96798 40.3079 8.88672 40.2057 8.78521C40.1047 8.68254 40.0236 8.56211 39.9663 8.42999C39.9092 8.29606 39.8794 8.15203 39.8789 8.00641Z" fill="#01FF0B"/>
<path d="M47.5699 8.00641V4.65204C47.5687 4.50258 47.5984 4.35448 47.6572 4.21706C47.7706 3.94912 47.9838 3.73589 48.2518 3.62256C48.3892 3.56377 48.5373 3.53403 48.6867 3.53519H53.1599V4.65204H49.0381C48.992 4.65181 48.9464 4.66089 48.9039 4.67885C48.8615 4.69681 48.8231 4.72324 48.7912 4.75648C48.7578 4.78827 48.7313 4.82659 48.7133 4.86907C48.6953 4.91155 48.6863 4.95734 48.6867 5.00346V5.76324H52.0412V6.88195H48.6867V7.64173C48.6872 7.73478 48.7244 7.82385 48.7902 7.88965C48.856 7.95544 48.9451 7.99265 49.0381 7.99315H53.1599V9.11196H48.6867C48.5373 9.11311 48.3892 9.08337 48.2518 9.02459C48.1193 8.96798 47.9988 8.88672 47.8966 8.78521C47.7956 8.68254 47.7145 8.56211 47.6572 8.42999C47.6001 8.29606 47.5704 8.15203 47.5699 8.00641Z" fill="#01FF0B"/>
<path d="M55.1163 9.12524V8.00644H59.0273C59.1754 8.00644 59.3174 7.94765 59.4222 7.84293C59.5269 7.7382 59.5857 7.59612 59.5857 7.44801C59.5857 7.2999 59.5269 7.15792 59.4222 7.05319C59.3174 6.94846 59.1754 6.88958 59.0273 6.88958H56.7916C56.5663 6.89176 56.343 6.84651 56.1363 6.75668C55.9383 6.67218 55.7583 6.55027 55.6064 6.39765C55.4531 6.24366 55.3307 6.0619 55.2455 5.86204C55.159 5.65605 55.1145 5.43483 55.1145 5.21142C55.1145 4.98802 55.159 4.76689 55.2455 4.5609C55.3307 4.36104 55.4531 4.17919 55.6064 4.02519C55.7583 3.87258 55.9383 3.75076 56.1363 3.66626C56.3434 3.57794 56.5665 3.53333 56.7916 3.53521H60.7045V4.65207H56.7916C56.6823 4.65359 56.5758 4.68703 56.4853 4.74834C56.3947 4.80965 56.3241 4.89612 56.2821 4.99709C56.2401 5.09805 56.2285 5.20916 56.2489 5.3166C56.2692 5.42404 56.3206 5.52317 56.3966 5.6018C56.4479 5.65442 56.5094 5.69604 56.5773 5.72413C56.6452 5.75221 56.7181 5.76614 56.7916 5.76512H59.0273C59.2524 5.76324 59.4755 5.80785 59.6826 5.89617C59.8807 5.98252 60.061 6.10487 60.2145 6.25705C60.3668 6.41065 60.4886 6.59178 60.5735 6.79081C60.66 6.99712 60.7045 7.21863 60.7045 7.44235C60.7045 7.66607 60.66 7.88758 60.5735 8.0939C60.4893 8.29326 60.3674 8.47442 60.2145 8.62756C60.061 8.77974 59.8807 8.90219 59.6826 8.98853C59.4755 9.07686 59.2524 9.12147 59.0273 9.11959L55.1163 9.12524Z" fill="#01FF0B"/>
<path d="M24.7044 13.1172H28.7293H28.8015L28.8186 13.1267H28.8661C28.8735 13.1292 28.8815 13.1292 28.8889 13.1267H28.906H28.9174H28.9288H28.9459C28.9495 13.1253 28.9536 13.1253 28.9572 13.1267C28.9572 13.1267 28.9573 13.1267 28.9687 13.1267H28.9857C28.9918 13.1328 29 13.1362 29.0085 13.1362C29.0199 13.1362 29.0256 13.1362 29.0256 13.1362H29.0484H29.0636C29.066 13.135 29.0686 13.1344 29.0712 13.1344C29.0739 13.1344 29.0764 13.135 29.0788 13.1362C29.0838 13.1352 29.089 13.1352 29.094 13.1362L29.1263 13.1495C29.1376 13.1516 29.1485 13.1554 29.1586 13.1609C29.184 13.1683 29.2083 13.1792 29.2308 13.1931H29.246C29.2698 13.2016 29.2927 13.2124 29.3143 13.2254L29.3751 13.2558C29.3767 13.2586 29.3789 13.2609 29.3815 13.2625C29.3842 13.2642 29.3872 13.2652 29.3903 13.2654C29.4042 13.2687 29.4177 13.2737 29.4302 13.2805C29.4351 13.2823 29.4405 13.2823 29.4454 13.2805L29.4625 13.2977C29.4625 13.2977 29.4758 13.2977 29.4853 13.3129C29.4973 13.3158 29.5084 13.3216 29.5176 13.3299C29.5294 13.336 29.5402 13.3437 29.5499 13.3528C29.5542 13.358 29.5603 13.3613 29.567 13.3622L29.5898 13.385L29.6069 13.4003C29.6069 13.4003 29.6164 13.4097 29.6221 13.4097L29.6392 13.4249L29.662 13.4496L29.679 13.4648C29.6811 13.4645 29.6832 13.4646 29.6852 13.4653C29.6872 13.4659 29.689 13.467 29.6905 13.4685C29.692 13.47 29.6931 13.4718 29.6937 13.4738C29.6944 13.4758 29.6946 13.4779 29.6942 13.48L29.7094 13.4895L29.7987 13.5768C29.7987 13.5768 29.8139 13.5769 29.8139 13.594L29.8291 13.6111L29.8462 13.6263V13.6433L29.8614 13.6585V13.6738L29.8785 13.6908V13.706L29.8956 13.7231C29.8978 13.7286 29.8978 13.7348 29.8956 13.7403C29.8964 13.742 29.8969 13.7439 29.8969 13.7459C29.8969 13.7479 29.8964 13.7498 29.8956 13.7516C29.8956 13.7516 29.8956 13.7516 29.8956 13.763L29.9108 13.7782C29.9108 13.7896 29.9108 13.7934 29.9108 13.7934V13.8105C29.9135 13.8178 29.9135 13.8259 29.9108 13.8333L29.926 13.8504C29.9249 13.8527 29.9244 13.8553 29.9244 13.858C29.9244 13.8606 29.9249 13.8632 29.926 13.8656C29.9273 13.8725 29.9273 13.8796 29.926 13.8865C29.9252 13.8928 29.9252 13.8991 29.926 13.9054C29.9274 13.911 29.9274 13.917 29.926 13.9226C29.9272 13.925 29.9277 13.9276 29.9277 13.9302C29.9277 13.9328 29.9272 13.9354 29.926 13.9377C29.9387 13.9635 29.9495 13.9902 29.9583 14.0176C29.9583 14.0176 29.9583 14.0175 29.9583 14.0346V14.0498V14.0651V14.0745C29.9593 14.0769 29.9599 14.0795 29.9599 14.0821C29.9599 14.0847 29.9593 14.0873 29.9583 14.0897C29.9571 14.0921 29.9565 14.0947 29.9565 14.0973C29.9565 14.1 29.9571 14.1026 29.9583 14.1049V14.122C29.9593 14.1244 29.9599 14.127 29.9599 14.1296C29.9599 14.1322 29.9593 14.1348 29.9583 14.1372C29.956 14.1427 29.956 14.1488 29.9583 14.1543V14.1695C29.9601 14.1776 29.9601 14.186 29.9583 14.1942C29.9569 14.2017 29.9569 14.2094 29.9583 14.217V14.234C29.9583 14.234 29.9583 14.2341 29.9583 14.2493V14.2645V14.2739V14.2891V14.3043V14.3366C29.9583 14.3366 29.9583 14.3367 29.9583 14.3462V14.3614C29.955 14.3693 29.955 14.3781 29.9583 14.3861V14.4259C29.9583 14.4259 29.9583 14.4259 29.9583 14.4373C29.9593 14.4411 29.9593 14.445 29.9583 14.4488V14.5057C29.9569 14.5132 29.9569 14.521 29.9583 14.5285C29.9596 14.5367 29.9596 14.545 29.9583 14.5532V14.7299C29.9595 14.7374 29.9595 14.745 29.9583 14.7526C29.9569 14.7608 29.9569 14.7692 29.9583 14.7774V14.8324C29.9597 14.8361 29.9597 14.8401 29.9583 14.8438C29.9572 14.8458 29.9567 14.8481 29.9567 14.8504C29.9567 14.8527 29.9572 14.855 29.9583 14.8571V14.897C29.9553 14.9043 29.9553 14.9125 29.9583 14.9198V14.9369V14.9692C29.9572 14.9742 29.9572 14.9794 29.9583 14.9844V15.0014V15.0166C29.9583 15.028 29.9583 15.0337 29.9583 15.0337V15.0489C29.9568 15.0571 29.9568 15.0655 29.9583 15.0737C29.9602 15.0812 29.9602 15.0889 29.9583 15.0964V15.1136V15.1287C29.9605 15.1342 29.9605 15.1404 29.9583 15.1458V15.161L29.9412 15.1933L29.926 15.2256C29.9227 15.2395 29.9176 15.2529 29.9108 15.2655V15.2807C29.9065 15.2898 29.9007 15.2981 29.8937 15.3054C29.8949 15.3077 29.8955 15.3103 29.8955 15.313C29.8955 15.3156 29.8949 15.3182 29.8937 15.3206V15.3376C29.8952 15.3413 29.8952 15.3454 29.8937 15.349C29.8928 15.3508 29.8924 15.3528 29.8924 15.3548C29.8924 15.3568 29.8928 15.3587 29.8937 15.3605C29.884 15.3728 29.8758 15.3862 29.869 15.4003L29.8538 15.4326C29.8536 15.4389 29.8519 15.4452 29.849 15.4508C29.846 15.4564 29.8418 15.4611 29.8367 15.4649C29.8367 15.4649 29.8367 15.4649 29.8367 15.4763C29.8367 15.4877 29.8367 15.4764 29.8367 15.4896C29.8356 15.492 29.8351 15.4946 29.8351 15.4973C29.8351 15.4999 29.8356 15.5024 29.8367 15.5048L29.8196 15.5219C29.8163 15.5328 29.8111 15.543 29.8044 15.5523C29.7972 15.5638 29.7889 15.5746 29.7797 15.5846C29.7712 15.5929 29.7641 15.6025 29.7588 15.6131C29.7544 15.6237 29.7479 15.6334 29.7398 15.6416C29.7398 15.6416 29.7398 15.6548 29.7246 15.6662L29.7075 15.6834C29.7058 15.6883 29.7058 15.6936 29.7075 15.6985C29.5523 15.8704 29.3636 16.0088 29.1529 16.105C28.9343 16.2077 28.6954 16.2597 28.4539 16.257H25.6598V18.4927H24.541L24.7044 13.1172ZM25.8231 15.3548H28.6173C28.7266 15.3533 28.8331 15.3197 28.9236 15.2584C29.0142 15.1971 29.0848 15.1106 29.1268 15.0097C29.1688 14.9087 29.1804 14.7977 29.16 14.6903C29.1397 14.5828 29.0883 14.4837 29.0123 14.4051C28.961 14.3524 28.8995 14.3108 28.8316 14.2827C28.7637 14.2547 28.6908 14.2406 28.6173 14.2416H25.8231V15.3548Z" fill="#01FF0B"/>
<path d="M32.2452 14.236C32.2438 14.0865 32.2736 13.9384 32.3325 13.801C32.3889 13.6684 32.4701 13.5478 32.5719 13.4458C32.6735 13.3436 32.7942 13.2624 32.9271 13.2065C33.065 13.1469 33.2137 13.1165 33.3639 13.1172H36.7184C37.0148 13.1183 37.2987 13.2364 37.5085 13.4458C37.6103 13.5478 37.6915 13.6684 37.7479 13.801C37.8068 13.9384 37.8366 14.0865 37.8353 14.236V15.4422C37.8353 15.4422 37.8353 15.4611 37.8353 15.4649C37.8339 15.4731 37.8339 15.4815 37.8353 15.4897V15.5448C37.8364 15.5491 37.8364 15.5537 37.8353 15.558C37.8353 15.558 37.8353 15.558 37.8353 15.5694V15.6093C37.832 15.6172 37.832 15.6261 37.8353 15.634V15.6492V15.6796C37.8338 15.6852 37.8338 15.6911 37.8353 15.6967V15.7119V15.7289C37.8353 15.7384 37.8353 15.7442 37.8353 15.7442V15.7612C37.8333 15.7687 37.8333 15.7766 37.8353 15.784C37.8368 15.7922 37.8368 15.8005 37.8353 15.8087V15.8239V15.841C37.837 15.8459 37.837 15.8513 37.8353 15.8562V15.8734L37.82 15.9037V15.9132L37.803 15.9436C37.7997 15.9575 37.7946 15.9709 37.7878 15.9834V16.0006C37.7835 16.0092 37.7777 16.0169 37.7707 16.0234C37.7729 16.0289 37.7729 16.035 37.7707 16.0405V16.0557C37.7721 16.0593 37.7721 16.0634 37.7707 16.0671C37.7697 16.0692 37.7691 16.0714 37.7691 16.0737C37.7691 16.076 37.7697 16.0783 37.7707 16.0804C37.761 16.0927 37.7527 16.1061 37.746 16.1202C37.7398 16.1304 37.7347 16.1413 37.7308 16.1525C37.7303 16.1585 37.7285 16.1643 37.7256 16.1696C37.7226 16.1748 37.7186 16.1794 37.7137 16.1829C37.7137 16.1829 37.7137 16.1924 37.7137 16.1962C37.7137 16.2 37.7137 16.1962 37.7137 16.2076C37.712 16.2125 37.712 16.2179 37.7137 16.2228L37.6966 16.2399C37.6934 16.2514 37.6883 16.2624 37.6814 16.2722L37.6567 16.3045C37.6477 16.3112 37.6411 16.3204 37.6377 16.3311C37.6334 16.3422 37.6262 16.352 37.6168 16.3595V16.3691C37.6168 16.3691 37.6168 16.3824 37.6016 16.3919L37.5864 16.409C37.5864 16.409 37.5864 16.409 37.5864 16.4242L37.6016 16.4394L37.6187 16.4565V16.4717L37.6339 16.4887L37.6434 16.5039L37.6586 16.5191V16.5362L37.6757 16.5533C37.6774 16.5582 37.6774 16.5636 37.6757 16.5685C37.6884 16.5785 37.6971 16.5926 37.7004 16.6084L37.7156 16.6255C37.7156 16.635 37.7156 16.6407 37.7156 16.6407V16.6559C37.7181 16.6639 37.7181 16.6726 37.7156 16.6806L37.7308 16.6957C37.7286 16.7012 37.7286 16.7074 37.7308 16.7129C37.7315 16.7192 37.7315 16.7256 37.7308 16.7319C37.7294 16.7388 37.7294 16.7459 37.7308 16.7528C37.7318 16.7552 37.7324 16.7578 37.7324 16.7604C37.7324 16.763 37.7318 16.7656 37.7308 16.768C37.733 16.7735 37.733 16.7796 37.7308 16.7851C37.7435 16.8108 37.7543 16.8374 37.7631 16.8648C37.7631 16.8648 37.7631 16.8648 37.7631 16.88V16.8952L37.7726 16.9123L37.7878 16.9446V16.9598C37.79 16.9653 37.79 16.9714 37.7878 16.9769C37.7878 16.9769 37.7878 16.9864 37.7878 16.9921V17.0092C37.7894 17.0167 37.7894 17.0244 37.7878 17.0319C37.786 17.0401 37.786 17.0486 37.7878 17.0567V17.0718C37.7878 17.0718 37.7878 17.0719 37.7878 17.089V17.1042V17.1213V17.1365V17.1687V17.1858C37.7862 17.1894 37.7854 17.1933 37.7854 17.1972C37.7854 17.2011 37.7862 17.205 37.7878 17.2086V17.2485C37.7868 17.2506 37.7862 17.2529 37.7862 17.2552C37.7862 17.2575 37.7868 17.2597 37.7878 17.2618C37.7893 17.2654 37.7893 17.2695 37.7878 17.2732V17.3283C37.7864 17.3364 37.7864 17.3449 37.7878 17.353C37.79 17.3611 37.79 17.3696 37.7878 17.3777V18.5819H36.6709V17.4651C36.674 17.4303 36.674 17.3953 36.6709 17.3605C36.666 17.3283 36.6584 17.2965 36.6481 17.2656C36.5952 17.1336 36.4959 17.0256 36.3689 16.9617C36.2905 16.9265 36.2059 16.907 36.12 16.9047H33.3259V18.5819H32.2452V14.236ZM33.3639 14.5874V15.917H36.158C36.3072 15.9171 36.4505 15.8586 36.557 15.7542C36.6635 15.6498 36.7249 15.5078 36.7279 15.3586V14.5988C36.7264 14.5061 36.6889 14.4175 36.6233 14.3519C36.5577 14.2864 36.4692 14.2489 36.3765 14.2474H33.7172C33.6242 14.2479 33.5351 14.285 33.4693 14.3508C33.4035 14.4166 33.3663 14.5058 33.3658 14.5988L33.3639 14.5874Z" fill="#01FF0B"/>
<path d="M40.2381 17.5905V14.236C40.2368 14.0865 40.2665 13.9384 40.3255 13.801C40.3818 13.6684 40.463 13.5478 40.5648 13.4458C40.7746 13.2364 41.0586 13.1183 41.355 13.1172H44.7094C44.8596 13.1165 45.0084 13.1469 45.1463 13.2065C45.2792 13.2624 45.3998 13.3436 45.5015 13.4458C45.6032 13.5478 45.6845 13.6684 45.7408 13.801C45.7998 13.9384 45.8295 14.0865 45.8282 14.236V17.5905C45.8295 17.7399 45.7998 17.888 45.7408 18.0254C45.6845 18.158 45.6032 18.2786 45.5015 18.3806C45.3988 18.4815 45.2784 18.5627 45.1463 18.62C45.0082 18.6789 44.8595 18.7086 44.7094 18.7073H41.3626C41.2131 18.7085 41.065 18.6787 40.9276 18.62C40.7951 18.5633 40.6746 18.4821 40.5724 18.3806C40.4706 18.2786 40.3894 18.158 40.3331 18.0254C40.2715 17.8885 40.2392 17.7405 40.2381 17.5905ZM41.355 17.239C41.3547 17.2851 41.3639 17.3308 41.3818 17.3733C41.3998 17.4157 41.4262 17.454 41.4594 17.4859C41.4912 17.5194 41.5296 17.5459 41.572 17.5638C41.6145 17.5818 41.6603 17.5909 41.7064 17.5905H44.3656C44.4587 17.59 44.5477 17.5528 44.6135 17.487C44.6793 17.4212 44.7165 17.3321 44.717 17.239V14.5798C44.7165 14.4868 44.6793 14.3977 44.6135 14.3319C44.5477 14.2661 44.4587 14.2289 44.3656 14.2284H41.7064C41.6136 14.2299 41.5251 14.2673 41.4595 14.3329C41.3939 14.3985 41.3564 14.4871 41.355 14.5798V17.239Z" fill="#01FF0B"/>
<path d="M47.8206 13.1172H53.4107V14.236H51.175V18.7073H50.0562V14.236H47.8206V13.1172Z" fill="#01FF0B"/>
<path d="M55.4185 14.236C55.4172 14.0865 55.4469 13.9384 55.5059 13.801C55.5622 13.6684 55.6434 13.5478 55.7452 13.4458C55.955 13.2364 56.239 13.1183 56.5354 13.1172H59.8898C60.1862 13.1183 60.4702 13.2364 60.68 13.4458C60.7829 13.5472 60.8649 13.6679 60.9212 13.801C60.9802 13.9384 61.0099 14.0865 61.0086 14.236V15.4422C61.01 15.4497 61.01 15.4574 61.0086 15.4649C61.0063 15.473 61.0063 15.4816 61.0086 15.4896V15.5447C61.0097 15.5491 61.0097 15.5536 61.0086 15.558C61.0086 15.558 61.0086 15.558 61.0086 15.5694V15.6093C61.0053 15.6172 61.0053 15.6261 61.0086 15.634V15.6492V15.6796C61.0064 15.6851 61.0064 15.6912 61.0086 15.6967V15.7119V15.7289C61.0086 15.7384 61.0086 15.7441 61.0086 15.7441V15.7612C61.0075 15.7688 61.0075 15.7765 61.0086 15.784C61.0104 15.7922 61.0104 15.8006 61.0086 15.8087V15.8239V15.841C61.0096 15.846 61.0096 15.8512 61.0086 15.8562V15.8733L60.9915 15.9037V15.9132L60.9763 15.9436C60.9729 15.9577 60.9671 15.9712 60.9592 15.9834V16.0006C60.9562 16.0094 60.951 16.0173 60.944 16.0234C60.9462 16.0289 60.9462 16.035 60.944 16.0405V16.0557C60.9455 16.0593 60.9455 16.0634 60.944 16.0671C60.9431 16.0692 60.9427 16.0714 60.9427 16.0737C60.9427 16.076 60.9431 16.0782 60.944 16.0804C60.9352 16.0929 60.9276 16.1063 60.9212 16.1202L60.9041 16.1525C60.904 16.1584 60.9025 16.1641 60.8999 16.1694C60.8973 16.1746 60.8935 16.1793 60.8889 16.1829C60.8889 16.1829 60.8889 16.1924 60.8889 16.1962C60.8889 16.2 60.8889 16.1962 60.8889 16.2076C60.8842 16.2115 60.8809 16.2169 60.8794 16.2228L60.8642 16.2399C60.8611 16.2514 60.8559 16.2623 60.849 16.2722L60.8243 16.3045C60.8155 16.3118 60.8084 16.3208 60.8034 16.331C60.7999 16.3421 60.7933 16.352 60.7845 16.3595V16.3691C60.7845 16.3691 60.7845 16.3824 60.7693 16.3919L60.7522 16.409C60.7511 16.4113 60.7506 16.4139 60.7506 16.4166C60.7506 16.4192 60.7511 16.4218 60.7522 16.4242L60.7674 16.4394L60.7826 16.4564V16.4717L60.7977 16.4887V16.5039L60.8148 16.5191V16.5362L60.83 16.5533C60.8311 16.5557 60.8316 16.5583 60.8316 16.5609C60.8316 16.5635 60.8311 16.5661 60.83 16.5685C60.8418 16.5789 60.8498 16.5929 60.8528 16.6084L60.8699 16.6255C60.8699 16.635 60.8699 16.6407 60.8699 16.6407V16.6558C60.8732 16.6638 60.8732 16.6727 60.8699 16.6806L60.887 16.6957C60.8848 16.7012 60.8848 16.7074 60.887 16.7129C60.8882 16.7192 60.8882 16.7256 60.887 16.7319C60.8866 16.7389 60.8866 16.7458 60.887 16.7528C60.887 16.7528 60.887 16.7623 60.887 16.768C60.8885 16.7736 60.8885 16.7794 60.887 16.785C60.8965 16.8059 60.9079 16.8325 60.9193 16.8648C60.9193 16.8648 60.9193 16.8648 60.9193 16.88V16.8952V16.9123L60.9364 16.9446V16.9598C60.9379 16.9654 60.9379 16.9712 60.9364 16.9768C60.9354 16.9792 60.9348 16.9818 60.9348 16.9844C60.9348 16.9871 60.9354 16.9897 60.9364 16.9921V17.0092C60.9383 17.0167 60.9383 17.0245 60.9364 17.0319C60.9355 17.0401 60.9355 17.0485 60.9364 17.0567V17.0718C60.9364 17.0718 60.9364 17.0719 60.9364 17.089V17.1042V17.1212V17.1365V17.1687V17.1858C60.9348 17.1894 60.934 17.1933 60.934 17.1972C60.934 17.2011 60.9348 17.205 60.9364 17.2086V17.2485C60.9354 17.2506 60.9349 17.2529 60.9349 17.2552C60.9349 17.2575 60.9354 17.2597 60.9364 17.2618C60.9379 17.2654 60.9379 17.2695 60.9364 17.2732V17.3283C60.9341 17.3363 60.9341 17.3449 60.9364 17.353C60.9378 17.3612 60.9378 17.3695 60.9364 17.3777V18.5819H59.8176V17.4651C59.8207 17.4303 59.8207 17.3953 59.8176 17.3605C59.8121 17.3282 59.8038 17.2965 59.7929 17.2656C59.7411 17.1329 59.6415 17.0246 59.5137 16.9617C59.436 16.9265 59.3521 16.907 59.2668 16.9047H56.4708V18.5819H55.4185V14.236ZM56.5354 14.5874V15.917H59.3314C59.4795 15.917 59.6215 15.8581 59.7262 15.7534C59.831 15.6487 59.8898 15.5067 59.8898 15.3586V14.5988C59.8893 14.5058 59.8521 14.4166 59.7863 14.3508C59.7205 14.285 59.6314 14.2479 59.5384 14.2474H56.8792C56.833 14.2467 56.7872 14.2557 56.7447 14.2736C56.7022 14.2916 56.6639 14.3182 56.6323 14.3518C56.5712 14.415 56.5371 14.4995 56.5373 14.5874H56.5354Z" fill="#01FF0B"/>
<path d="M63.4131 17.5905V14.236C63.4124 14.0864 63.4428 13.9383 63.5024 13.801C63.5587 13.6684 63.6399 13.5478 63.7417 13.4458C63.8427 13.3428 63.9635 13.2614 64.0969 13.2065C64.2341 13.147 64.3823 13.1165 64.5319 13.1172H67.8863C68.0359 13.1165 68.184 13.147 68.3213 13.2065C68.4547 13.2614 68.5755 13.3428 68.6765 13.4458C68.7789 13.5473 68.8602 13.668 68.9158 13.801C68.9754 13.9383 69.0058 14.0864 69.0051 14.236V17.5905C69.0058 17.7401 68.9754 17.8881 68.9158 18.0254C68.8602 18.1584 68.7789 18.2791 68.6765 18.3806C68.5745 18.4823 68.4539 18.5636 68.3213 18.62C68.1839 18.6789 68.0358 18.7086 67.8863 18.7073H64.5357C64.3862 18.7086 64.2381 18.6789 64.1007 18.62C63.8328 18.5066 63.6195 18.2933 63.5062 18.0254C63.4453 17.8884 63.4136 17.7403 63.4131 17.5905ZM64.5319 17.239C64.5333 17.3318 64.5708 17.4203 64.6364 17.4858C64.702 17.5514 64.7905 17.589 64.8833 17.5905H67.5425C67.6352 17.589 67.7238 17.5514 67.7894 17.4858C67.855 17.4203 67.8925 17.3318 67.8939 17.239V14.5798C67.8925 14.4871 67.855 14.3985 67.7894 14.3329C67.7238 14.2673 67.6352 14.2299 67.5425 14.2284H64.8833C64.7905 14.2299 64.702 14.2673 64.6364 14.3329C64.5708 14.3985 64.5333 14.4871 64.5319 14.5798V17.239Z" fill="#01FF0B"/>
<path d="M72.5267 13.1172V17.239C72.5282 17.3318 72.5657 17.4203 72.6313 17.4858C72.6969 17.5514 72.7854 17.589 72.8781 17.5905H76.9999V18.7073H72.5267C72.3772 18.7086 72.2291 18.6789 72.0918 18.6199C71.9592 18.5636 71.8386 18.4823 71.7366 18.3806C71.6342 18.2791 71.5528 18.1584 71.4972 18.0253C71.4377 17.8881 71.4073 17.7401 71.408 17.5905V13.1172H72.5267Z" fill="#01FF0B"/>
<path d="M15.0494 18.2481H4.48841L4.5378 9.38522C4.35124 9.39072 4.16453 9.38181 3.97935 9.35861C2.92012 9.25726 1.93353 8.77541 1.20235 8.00237C0.417996 7.15137 -0.0120347 6.03314 1.87787e-06 4.87588C1.87787e-06 2.32491 2.10269 0 4.41243 0H14.8119C16.11 0.00248082 17.3553 0.513968 18.2803 1.42459C18.7356 1.87644 19.0966 2.41421 19.3425 3.00666C19.5883 3.59912 19.7141 4.23444 19.7125 4.87588C19.7181 5.49895 19.5895 6.11593 19.3355 6.6849C19.0815 7.25387 18.708 7.76157 18.2404 8.1734C17.3857 8.93318 16.341 9.34532 15.0494 9.4213V18.2481ZM6.18841 16.5537H13.3551V9.43271C10.8858 9.40802 9.50867 9.15923 7.84665 8.47352L7.40977 8.29304L8.13347 6.69177L8.54754 6.88171C9.95313 7.50663 11.4157 7.69658 14.8157 7.69658C15.7465 7.69658 16.5442 7.42499 17.1217 6.91213C17.3936 6.66882 17.6133 6.37285 17.7675 6.04217C17.9388 5.67946 18.0258 5.28273 18.022 4.88163C18.0202 4.46401 17.9353 4.05094 17.7722 3.66646C17.6092 3.28198 17.3712 2.93377 17.0723 2.64217C16.7758 2.3435 16.423 2.10657 16.0344 1.94518C15.6458 1.78378 15.229 1.7011 14.8081 1.7019H4.40862C3.77611 1.7019 3.09042 2.04572 2.57567 2.62315C2.01602 3.24342 1.70137 4.04627 1.69052 4.88163C1.6811 5.25424 1.75102 5.62454 1.89565 5.96806V5.99088C2.01851 6.30831 2.20316 6.59824 2.43889 6.84378C2.65889 7.08754 2.92567 7.28452 3.22337 7.42307C3.49434 7.57211 3.79581 7.65724 4.10472 7.67191H4.34785C4.54919 7.67191 4.82651 7.68898 5.10763 7.68898H6.22641L6.18841 16.5537Z" fill="#01FF0B"/>
</g>
<defs>
<clipPath id="clip0_137_569">
<rect width="77" height="18.7077" fill="white"/>
</clipPath>
</defs>
</svg>
