<svg width="18" height="18" viewBox="0 0 18 18" fill="none" xmlns="http://www.w3.org/2000/svg">
<path d="M17.0026 1.32345C17.0026 1.22871 17.0026 1.22872 16.9079 1.13398C16.9079 1.03924 16.8132 1.03924 16.7184 1.03924C16.5289 0.944504 16.2447 1.03924 16.0553 1.13398C16.0553 1.13398 1.08684 6.91293 0.234211 7.57608C0.139474 7.67082 0.0447368 7.76556 0.0447368 7.86029C-0.144737 8.33398 0.328947 8.52345 0.328947 8.52345L4.21316 9.84977C4.30789 9.84977 4.3079 9.84977 4.40263 9.84977C5.25526 9.28135 13.2132 3.78661 13.6868 3.59714C13.7816 3.59714 13.7816 3.59714 13.7816 3.69187C13.5921 4.35503 6.67632 10.9866 6.67632 10.9866V11.0813L6.29737 15.2498C6.29737 15.2498 6.10789 16.4813 7.33947 15.2498C8.00263 14.5866 8.66579 13.9235 9.32895 13.2603C10.6553 14.2077 12.0763 15.3445 12.7395 15.9129C12.8342 16.0077 12.9289 16.1024 13.1184 16.1971C13.2132 16.2919 13.4026 16.2919 13.4974 16.2919C14.0658 16.2919 14.2553 15.534 14.2553 15.534C14.2553 15.534 17.0026 3.69187 17.0974 2.08135C17.0974 1.89187 17.0974 1.79714 17.0974 1.7024C17.0974 1.60766 17.0026 1.41819 17.0026 1.32345Z" fill="#0B0C0B"/>
</svg>
